 <svg xmlns="http://www.w3.org/2000/svg" version="1.1" xlink="http://www.w3.org/1999/xlink" xmlns:svgjs="http://svgjs.com/svgjs" width="8%" height="8%" viewBox="4.687964916229248 4.7130045890808105 90.59778594970703 90.62207794189453"><g fill="blue"><path d="M69.469 71.688c.293.293.695.457 1.11.453.413.004.816-.16 1.109-.453C77.426 65.93 80.653 58.129 80.653 50s-3.227-15.93-8.965-21.688a1.568 1.568 0 1 0-2.219 2.219c5.164 5.164 8.066 12.168 8.066 19.469s-2.902 14.305-8.066 19.469c-.297.293-.46.691-.46 1.11s.163.816.46 1.109z"></path><path d="M90.484 60.578A41.829 41.829 0 0 0 39.421 9.515c-13.406-6.234-24.484-6.39-30.422-.516s-5.719 17.016.516 30.422c-3.286 12.543-.567 25.898 7.359 36.16s20.16 16.27 33.125 16.262a42.555 42.555 0 0 0 10.578-1.359 45.262 45.262 0 0 0 18.453 4.828A16.378 16.378 0 0 0 90.999 91c5.875-5.938 5.719-17-.516-30.422zM77.39 22.609a38.703 38.703 0 0 1-16.453 64.547 104.23 104.23 0 0 1-27.719-20.312 103.976 103.976 0 0 1-20.375-27.781A38.731 38.731 0 0 1 77.39 22.61zM11.218 11.218c4.406-4.437 13.141-4.469 23.688-.281a41.8 41.8 0 0 0-23.969 23.969c-4.187-10.547-4.156-19.281.281-23.688zM22.609 77.39a38.655 38.655 0 0 1-10.812-33.438 111.463 111.463 0 0 0 19.141 25.109 111.493 111.493 0 0 0 25.109 19.141A38.659 38.659 0 0 1 22.609 77.39zm66.172 11.391c-4.406 4.438-13.141 4.469-23.688.281a41.8 41.8 0 0 0 23.969-23.969c4.188 10.547 4.156 19.281-.281 23.688z"></path></g></svg>